#N canvas 301 48 415 433 10;
#X obj 36 34 pddom.from~ \$1 \$2;
#X obj 36 394 pddom.to~ \$1 \$2;
#X obj 36 354 *~;
#X obj 76 314 line~;
#X obj 116 224 delay;
#X msg 76 284 \$1 \$2;
#X obj 76 134 f;
#X obj 76 194 t a b;
#X obj 76 164 pack f f;
#X obj 116 254 pack f f;
#X obj 76 84 route bang float level attack decay;
#X connect 0 0 2 0;
#X connect 0 1 10 0;
#X connect 2 0 1 0;
#X connect 3 0 2 1;
#X connect 4 0 9 0;
#X connect 5 0 3 0;
#X connect 6 0 8 0;
#X connect 7 0 5 0;
#X connect 7 1 4 0;
#X connect 8 0 7 0;
#X connect 9 0 5 0;
#X connect 10 0 6 0;
#X connect 10 2 6 1;
#X connect 10 3 8 1;
#X connect 10 3 4 1;
#X connect 10 4 9 1;
#X connect 10 5 1 1;
