#N canvas 301 48 520 403 10;
#X obj 36 34 pddom.from \$1 \$2;
#X obj 388 345 pddom.to \$1 \$2;
#X obj 36 114 f;
#X obj 36 284 tabread \$1.\$2.table;
#X obj 126 114 unpack f f;
#X obj 126 144 swap;
#X obj 126 174 tabwrite \$1.\$2.table;
#X obj 36 74 route bang float data write;
#X obj 87 213 s \$1.\$2.table;
#X obj 126 250 table \$1.\$2.table 128;
#X connect 0 0 7 0;
#X connect 2 0 3 0;
#X connect 3 0 1 0;
#X connect 4 0 5 0;
#X connect 4 1 5 1;
#X connect 5 0 6 0;
#X connect 5 1 6 1;
#X connect 7 0 2 0;
#X connect 7 1 2 0;
#X connect 7 2 8 0;
#X connect 7 3 4 0;
#X connect 7 4 1 0;
