#N canvas 301 48 414 364 10;
#X obj 36 34 pddom.from \$1 \$2;
#X obj 216 234 pddom.to \$1 \$2;
#X obj 36 194 metro 500;
#X msg 110 161 stop;
#X obj 76 114 sel 1 0;
#X obj 157 161 max 1;
#X obj 36 74 route bang run float interval stop;
#X connect 0 0 6 0;
#X connect 2 0 1 0;
#X connect 3 0 2 0;
#X connect 4 0 2 0;
#X connect 4 1 3 0;
#X connect 4 2 5 0;
#X connect 5 0 2 1;
#X connect 6 0 2 0;
#X connect 6 1 2 0;
#X connect 6 2 4 0;
#X connect 6 3 4 0;
#X connect 6 4 3 0;
#X connect 6 5 1 0;
