#N canvas 301 48 389 323 10;
#X obj 36 34 pddom.from \$1 \$2;
#X obj 206 204 pddom.to \$1 \$2;
#X msg 85 104 stop;
#X obj 36 154 delay 400;
#X obj 36 74 route float bang stop delay;
#X connect 0 0 4 0;
#X connect 2 0 3 0;
#X connect 3 0 1 0;
#X connect 4 0 3 0;
#X connect 4 1 3 0;
#X connect 4 2 2 0;
#X connect 4 3 3 1;
#X connect 4 4 1 0;
