#N canvas 301 48 414 364 10;
#X obj 36 34 pddom.from~ \$1 \$2;
#X obj 36 274 pddom.to~ \$1 \$2;
#X obj 76 164 osc~;
#X obj 76 224 *~;
#X obj 126 194 line~;
#X msg 126 164 \$1 2;
#X obj 76 84 route float frequency level;
#X obj 76 124 t a b;
#X connect 0 0 1 0;
#X connect 0 1 6 0;
#X connect 2 0 3 0;
#X connect 3 0 1 0;
#X connect 4 0 3 1;
#X connect 5 0 4 0;
#X connect 6 0 7 0;
#X connect 6 1 7 0;
#X connect 6 2 5 0;
#X connect 6 3 1 1;
#X connect 7 0 2 0;
#X connect 7 1 1 1;
