#N canvas 279 22 670 453 10;
#X declare -path support/pddom;
#X text 55 45 Space;
#X obj 59 346 pd-dom space;
#X obj 59 386 dac~;
#X obj 523 316 del 0;
#X obj 523 276 loadbang;
#X msg 523 356 \; pd dsp 1 \, dsp 0;
#X msg 235 362 vis \$1;
#X obj 235 342 hradio 15 1 0 12 empty empty empty 0 -8 0 10 -262144
-1 -1 0;
#X msg 235 392 reset;
#X obj 235 245 netsend;
#X obj 235 125 loadbang;
#X msg 235 165 connect localhost 8003;
#X obj 55 125 netreceive 8004 0;
#X floatatom 235 275 5 0 0 0 - - -;
#X floatatom 155 155 5 0 0 0 - - -;
#X msg 265 205 send 1 2 3 \, send 4 5 6 \, send 7 8 9;
#X obj 55 255 route list;
#X obj 55 285 s radio;
#X obj 55 75 declare -path support/pddom;
#X obj 62 160 print;
#X connect 1 0 2 0;
#X connect 1 0 2 1;
#X connect 3 0 5 0;
#X connect 4 0 3 0;
#X connect 6 0 1 1;
#X connect 7 0 6 0;
#X connect 8 0 1 1;
#X connect 9 0 13 0;
#X connect 10 0 11 0;
#X connect 11 0 9 0;
#X connect 12 0 16 0;
#X connect 12 0 19 0;
#X connect 12 1 14 0;
#X connect 15 0 9 0;
#X connect 16 0 17 0;
#X connect 16 1 1 1;
