#N canvas 279 22 894 636 10;
#X declare -path support/pddom/ -path ../ping;
#X text 55 45 Space;
#X obj 59 506 pd-dom space;
#X obj 59 546 dac~;
#X obj 523 476 del 0;
#X obj 523 436 loadbang;
#X msg 523 516 \; pd dsp 1 \, dsp 0;
#X msg 235 522 vis \$1;
#X obj 235 502 hradio 15 1 0 12 empty empty empty 0 -8 0 10 -262144
-1 -1 0;
#X obj 295 325 tgl 15 0 empty empty empty 17 7 0 10 -262144 -1 -1 0
1;
#X obj 235 325 r space;
#X obj 235 355 spigot;
#X obj 235 385 print verbose;
#X msg 235 552 reset;
#X msg 235 475 add delay~;
#X msg 235 435 \; space.to run 0;
#X msg 522 307 64 66 71 73 74 66 64 73 71 66 74 73;
#X msg 522 75 \; space reset \; space chain pulse counter memory memory
sinus~ envelope~ \; space.1 modulus 9 \; space.2 data 0 1 2 3 0 1 2
3 1 3 \; space.3 data 0 0 369.994 523.251 698.456 \; space.4 level
0.17 \; space.5 attack 20 \, decay 250 \; space.0 interval 330 \, run
1 \; space chain pulse counter memory sinus~ envelope~ \; space.7 modulus
9 \; space.8 data 0 1 2 3 0 1 2 3 1 3 \; space.9 level 0.19 \; space.6
interval 350 \, run 1 \; pd dsp 1;
#X obj 235 245 netsend;
#X obj 235 125 loadbang;
#X msg 235 165 connect localhost 8003;
#X obj 55 125 netreceive 8004 0;
#X floatatom 235 275 5 0 0 0 - - -;
#X floatatom 155 155 5 0 0 0 - - -;
#X msg 265 205 send 1 2 3 \, send 4 5 6 \, send 7 8 9;
#X obj 55 75 declare -path support/pddom/ -path ../ping;
#X obj 55 255 route list;
#X obj 55 285 s radio;
#X connect 1 0 2 0;
#X connect 1 0 2 1;
#X connect 3 0 5 0;
#X connect 4 0 3 0;
#X connect 6 0 1 1;
#X connect 7 0 6 0;
#X connect 8 0 10 1;
#X connect 9 0 10 0;
#X connect 10 0 11 0;
#X connect 12 0 1 1;
#X connect 13 0 1 1;
#X connect 17 0 21 0;
#X connect 18 0 19 0;
#X connect 19 0 17 0;
#X connect 20 0 25 0;
#X connect 20 1 22 0;
#X connect 23 0 17 0;
#X connect 25 0 26 0;
#X connect 25 1 1 1;
