#N canvas 96 22 611 469 10;
#X declare -path pd-dom/ -path pd-abs/ -path pdsocket/;
#X text 55 45 Space;
#X obj 55 315 pd-dom space;
#X obj 55 355 dac~;
#X msg 222 325 delete 0;
#X msg 222 265 set 0 blib~;
#N canvas 35 22 550 322 socket 0;
#X obj 69 225 outlet;
#X obj 69 55 inlet;
#X obj 199 55 netreceive 4025 0;
#X obj 319 225 netsend;
#X msg 319 185 connect localhost 4026;
#X obj 319 145 select 1;
#X obj 199 225 spigot;
#X connect 1 0 6 0;
#X connect 2 0 0 0;
#X connect 2 1 5 0;
#X connect 3 0 6 1;
#X connect 4 0 3 0;
#X connect 5 0 4 0;
#X connect 6 0 3 0;
#X restore 231 155 pd socket;
#X obj 135 275 s space;
#X obj 55 245 route space;
#X msg 222 295 vis 0;
#X obj 437 115 del 0;
#X obj 437 75 loadbang;
#X obj 55 155 pysocket 4541 4542;
#X obj 55 75 declare -path pd-dom/ -path pd-abs/ -path pdsocket/;
#X msg 67 118 send asdf;
#X msg 437 155 \; pd dsp 1 \, dsp 0;
#X obj 75 195 print incoming;
#X connect 1 0 2 0;
#X connect 1 0 2 1;
#X connect 3 0 1 1;
#X connect 4 0 1 1;
#X connect 7 0 1 1;
#X connect 7 1 6 0;
#X connect 8 0 1 1;
#X connect 9 0 14 0;
#X connect 10 0 9 0;
#X connect 11 0 15 0;
#X connect 11 0 7 0;
#X connect 13 0 11 0;
