#N canvas 534 22 638 627 10;
#X declare -path lib/station -path support/pddom/ -path support/pdsocket/
;
#X text 55 45 Space;
#X obj 55 535 pd-dom space;
#X obj 55 575 dac~;
#X obj 125 315 s space;
#X obj 55 285 route space;
#X obj 437 115 del 0;
#X obj 437 75 loadbang;
#X obj 55 175 pysocket 4541 4542;
#X msg 437 155 \; pd dsp 1 \, dsp 0;
#X obj 75 205 print incoming;
#X msg 222 545 vis \$1;
#X obj 222 525 hradio 15 1 0 8 empty empty empty 0 -8 0 10 -262144
-1 -1 3;
#X obj 497 215 tgl 15 0 empty empty empty 17 7 0 10 -262144 -1 -1 0
1;
#X obj 437 215 r space;
#X obj 437 245 spigot;
#X obj 437 275 print verbose;
#X msg 222 575 reset;
#X obj 55 75 declare -path lib/station -path support/pddom/ -path support/pdsocket/
;
#X msg 55 145 send some data back;
#X msg 222 498 add delay~;
#X msg 222 458 \; space.to run 0;
#X msg 222 315 \; space reset \; space chain pulse counter memory memory
sinus~ envelope~ \; space.1 modulus 9 \; space.2 data 0 1 2 3 1 2 3
1 0 3 \; space.3 data 0 0 369.994 523.251 698.456 \; space.4 level
0.1 \; space.5 attack 20 \, decay 150 \; space.0 interval 255 \, run
1 \; pd dsp 1;
#X connect 1 0 2 0;
#X connect 1 0 2 1;
#X connect 4 0 1 1;
#X connect 4 1 3 0;
#X connect 5 0 8 0;
#X connect 6 0 5 0;
#X connect 7 0 9 0;
#X connect 7 0 4 0;
#X connect 10 0 1 1;
#X connect 11 0 10 0;
#X connect 12 0 14 1;
#X connect 13 0 14 0;
#X connect 14 0 15 0;
#X connect 16 0 1 1;
#X connect 18 0 7 0;
#X connect 19 0 1 1;
