#N canvas 96 22 611 469 10;
#X declare -path support/pddom/ -path support/pdsocket/;
#X text 55 45 Space;
#X obj 55 315 pd-dom space;
#X obj 55 355 dac~;
#X msg 222 325 delete 0;
#X msg 222 265 set 0 blib~;
#X obj 135 275 s space;
#X obj 55 245 route space;
#X msg 222 295 vis 0;
#X obj 437 115 del 0;
#X obj 437 75 loadbang;
#X obj 55 155 pysocket 4541 4542;
#X msg 67 118 send asdf;
#X msg 437 155 \; pd dsp 1 \, dsp 0;
#X obj 75 195 print incoming;
#X obj 55 75 declare -path support/pddom/ -path support/pdsocket/;
#X connect 1 0 2 0;
#X connect 1 0 2 1;
#X connect 3 0 1 1;
#X connect 4 0 1 1;
#X connect 6 0 1 1;
#X connect 6 1 5 0;
#X connect 7 0 1 1;
#X connect 8 0 12 0;
#X connect 9 0 8 0;
#X connect 10 0 13 0;
#X connect 10 0 6 0;
#X connect 11 0 10 0;
