#N canvas 19 29 543 298 10;
#X obj 35 165 netsend;
#X obj 35 35 loadbang;
#X obj 295 165 netreceive 8004 0;
#X floatatom 35 205 5 0 0 0 - - -;
#X floatatom 435 205 5 0 0 0 - - -;
#X msg 35 75 connect localhost 8003;
#X msg 65 115 send this is a message to nodejs;
#X obj 295 205 print from-nodejs;
#X connect 0 0 3 0;
#X connect 1 0 5 0;
#X connect 2 0 7 0;
#X connect 2 1 4 0;
#X connect 5 0 0 0;
#X connect 6 0 0 0;
