#N canvas 12 22 818 337 10;
#X obj 567 31 loadbang;
#X obj 27 241 netsend;
#X floatatom 27 281 5 0 0 0 - - -;
#X floatatom 117 71 5 0 0 0 - - -;
#X obj 27 31 netreceive 8116;
#X obj 27 201 r netsend;
#X obj 567 71 del 0;
#X obj 207 81 adc~ 1;
#X obj 367 71 metro;
#X obj 87 151 s blocksize;
#X obj 427 71 r blocksize;
#N canvas 243 22 471 499 tabdump2netsend 0;
#X obj 32 34 inlet;
#X obj 62 234 tabread in;
#X obj 62 154 until;
#X obj 62 194 f;
#X obj 102 194 + 1;
#X msg 62 274 add2 \$1;
#X msg 30 331 send -0.000865165 -0.000770293 -0.000775097 -0.000761377
-0.000588928 -0.000412784 -0.000321997 -0.000282044 -0.000371802 -0.00052423
-0.000604257 -0.000657776 -0.000691071 -0.000737071 -0.000860126 -0.000934524
-0.00094415 -0.00103784 -0.00114255 -0.00114032 -0.00113489 -0.00122124
-0.0013464 -0.00142584 -0.00144199 -0.00142842 -0.00142471 -0.00145057
-0.00144162 -0.00134933 -0.00127138 -0.00124417 -0.00121498 -0.00124153
-0.00129688 -0.0013278 -0.00142831 -0.00152863 -0.00157114 -0.00168832
-0.0017989 -0.00177633 -0.00177929 -0.00185854 -0.00184146 -0.0017774
-0.00178392 -0.00179063 -0.00180167 -0.00184144 -0.00182889 -0.00180222
-0.00187023 -0.00190886 -0.00183212 -0.0018938 -0.00207622 -0.00201936
-0.00185321 -0.00191228 -0.00196857 -0.00181871 -0.00179769 -0.00187784
-0.00166573 -0.00148556 -0.00155596 -0.00141781 -0.00125157 -0.00132745
-0.00121314 -0.00103169 -0.00108406 -0.000971728 -0.000787903 -0.000877223
-0.000803072 -0.000543896 -0.000602415 -0.000641644 -0.000344829 -0.00019712
-0.000219293 -9.48842e-05 -9.35473e-05 -0.000240898 -0.000202865 -0.00013709
-0.000156649 -0.000125941 -0.000177483 -0.000281541 -0.000172305 9.01414e-05
0.000278455 0.000409128 0.000526141 0.000553433 0.000579228 0.000657577
0.000639964 0.000549298 0.000536551 0.000545936 0.000488572 0.000467176
0.000491185 0.000481645 0.000522272 0.000560793 0.000521543 0.00063909
0.000893555 0.00100008 0.00106533 0.00119783 0.00123773 0.00135409
0.00162996 0.00160218 0.00137788 0.00140211 0.00124648 0.000953603
0.00120949 0.00133227 0.000780968 0.000678237;
#X obj 32 114 t b a a b;
#X obj 32 74 max 1;
#X msg 272 214 set send;
#X obj 30 421 s netsend;
#X obj 142 194 % 1;
#X connect 0 0 8 0;
#X connect 1 0 5 0;
#X connect 2 0 3 0;
#X connect 3 0 4 0;
#X connect 3 0 1 0;
#X connect 4 0 11 0;
#X connect 5 0 6 0;
#X connect 6 0 10 0;
#X connect 7 0 6 0;
#X connect 7 1 2 0;
#X connect 7 2 11 1;
#X connect 7 3 9 0;
#X connect 8 0 7 0;
#X connect 9 0 6 0;
#X connect 11 0 3 1;
#X restore 367 151 pd tabdump2netsend;
#N canvas 0 22 450 300 blocksize2ms 0;
#X obj 67 131 /;
#X msg 67 101 1000 44100;
#X obj 27 31 r blocksize;
#X obj 27 161 *;
#X obj 27 71 t a b;
#X obj 27 201 outlet;
#X connect 0 0 3 1;
#X connect 1 0 0 0;
#X connect 2 0 4 0;
#X connect 3 0 5 0;
#X connect 4 0 3 0;
#X connect 4 1 1 0;
#X restore 427 31 pd blocksize2ms;
#X obj 367 31 r run;
#N canvas 80 25 354 200 tabfill 0;
#X obj 137 75 tabsend~ in;
#X obj 137 35 inlet~;
#X obj 27 35 r switch~;
#X obj 27 75 switch~;
#X connect 1 0 0 0;
#X connect 2 0 3 0;
#X restore 207 121 pd tabfill in;
#X obj 207 31 table in;
#X obj 207 171 r blocksize;
#X msg 207 211 \; in resize \$1 \; switch~ set \$1 1 1;
#X obj 367 111 f;
#X obj 27 111 route run blocksize;
#X obj 27 151 s run;
#X obj 260 88 osc~ 68;
#X msg 567 111 \; pd dsp 0 \, dsp 1 \; blocksize 256 \; switch~ 1 \;
netsend connect localhost 8115;
#X connect 0 0 6 0;
#X connect 1 0 2 0;
#X connect 4 0 19 0;
#X connect 4 1 3 0;
#X connect 5 0 1 0;
#X connect 6 0 22 0;
#X connect 8 0 18 0;
#X connect 10 0 18 1;
#X connect 12 0 8 1;
#X connect 13 0 8 0;
#X connect 16 0 17 0;
#X connect 18 0 11 0;
#X connect 19 0 20 0;
#X connect 19 1 9 0;
#X connect 21 0 14 0;
