#N canvas 12 22 818 337 10;
#X obj 567 31 loadbang;
#X obj 27 241 netsend;
#X floatatom 27 281 5 0 0 0 - - -;
#X floatatom 117 71 5 0 0 0 - - -;
#X obj 27 31 netreceive 8116;
#X obj 27 201 r netsend;
#X obj 567 71 del 0;
#X obj 207 81 adc~ 1;
#X obj 367 71 metro;
#X obj 87 151 s blocksize;
#X obj 427 71 r blocksize;
#N canvas 243 22 471 499 tabdump2netsend 0;
#X obj 32 34 inlet;
#X obj 62 234 tabread in;
#X obj 62 154 until;
#X obj 62 194 f;
#X obj 102 194 + 1;
#X msg 62 274 add2 \$1;
#X obj 32 114 t b a a b;
#X obj 32 74 max 1;
#X msg 272 214 set send;
#X obj 30 421 s netsend;
#X obj 142 194 % 1;
#X msg 30 331;
#X connect 0 0 7 0;
#X connect 1 0 5 0;
#X connect 2 0 3 0;
#X connect 3 0 4 0;
#X connect 3 0 1 0;
#X connect 4 0 10 0;
#X connect 5 0 11 0;
#X connect 6 0 11 0;
#X connect 6 1 2 0;
#X connect 6 2 10 1;
#X connect 6 3 8 0;
#X connect 7 0 6 0;
#X connect 8 0 11 0;
#X connect 10 0 3 1;
#X connect 11 0 9 0;
#X restore 367 151 pd tabdump2netsend;
#N canvas 0 22 450 300 blocksize2ms 0;
#X obj 67 131 /;
#X msg 67 101 1000 44100;
#X obj 27 31 r blocksize;
#X obj 27 161 *;
#X obj 27 71 t a b;
#X obj 27 201 outlet;
#X connect 0 0 3 1;
#X connect 1 0 0 0;
#X connect 2 0 4 0;
#X connect 3 0 5 0;
#X connect 4 0 3 0;
#X connect 4 1 1 0;
#X restore 427 31 pd blocksize2ms;
#X obj 367 31 r run;
#N canvas 80 25 354 200 tabfill 0;
#X obj 137 75 tabsend~ in;
#X obj 137 35 inlet~;
#X obj 27 35 r switch~;
#X obj 27 75 switch~;
#X connect 1 0 0 0;
#X connect 2 0 3 0;
#X restore 207 121 pd tabfill in;
#X obj 207 31 table in;
#X obj 207 171 r blocksize;
#X msg 207 211 \; in resize \$1 \; switch~ set \$1 1 1;
#X obj 367 111 f;
#X obj 27 111 route run blocksize;
#X obj 27 151 s run;
#X msg 567 111 \; pd dsp 0 \, dsp 1 \; blocksize 256 \; switch~ 1 \;
netsend connect localhost 8115;
#X connect 0 0 6 0;
#X connect 1 0 2 0;
#X connect 4 0 19 0;
#X connect 4 1 3 0;
#X connect 5 0 1 0;
#X connect 6 0 21 0;
#X connect 7 0 14 0;
#X connect 8 0 18 0;
#X connect 10 0 18 1;
#X connect 12 0 8 1;
#X connect 13 0 8 0;
#X connect 16 0 17 0;
#X connect 18 0 11 0;
#X connect 19 0 20 0;
#X connect 19 1 9 0;
