#N canvas 229 22 344 260 10;
#X obj 37 31 loadbang;
#X obj 37 111 netsend;
#X floatatom 37 151 5 0 0 0 - - -;
#X msg 37 71 connect localhost 8025 \, send 100;
#X connect 0 0 3 0;
#X connect 1 0 2 0;
#X connect 3 0 1 0;
