#N canvas 20 22 659 191 10;
#X obj 427 31 loadbang;
#X obj 197 71 netsend;
#X obj 197 31 r send;
#X obj 27 71 s receive;
#X obj 287 31 r receive;
#X obj 287 151 s send;
#X floatatom 197 111 5 0 0 0 - - -;
#X floatatom 127 71 5 0 0 0 - - -;
#X msg 427 71 \; send connect localhost 8015;
#X obj 27 31 netreceive 8016;
#X obj 287 71 list prepend send;
#X obj 287 111 list trim;
#X connect 0 0 8 0;
#X connect 1 0 6 0;
#X connect 2 0 1 0;
#X connect 4 0 10 0;
#X connect 9 0 3 0;
#X connect 9 1 7 0;
#X connect 10 0 11 0;
#X connect 11 0 5 0;
