#N canvas 20 22 673 251 10;
#X obj 287 31 loadbang;
#X obj 197 71 netsend;
#X obj 197 31 r send;
#X obj 27 71 s receive;
#X obj 487 31 r receive;
#X obj 487 71 s send;
#X floatatom 197 111 5 0 0 0 - - -;
#X floatatom 127 71 5 0 0 0 - - -;
#X msg 298 146 \; send send 12.3 foo bar baz \; send send 123123;
#X msg 287 71 \; send connect localhost 8003;
#X obj 27 31 netreceive 8004;
#X connect 0 0 9 0;
#X connect 1 0 6 0;
#X connect 2 0 1 0;
#X connect 4 0 5 0;
#X connect 10 0 3 0;
#X connect 10 1 7 0;
