#N canvas 20 22 456 263 10;
#X obj 207 31 loadbang;
#X obj 27 71 s receive;
#X obj 207 111 netsend;
#X msg 207 71 connect localhost 8001;
#X obj 27 31 netreceive 8002;
#X floatatom 207 151 5 0 0 0 - - -;
#X floatatom 127 71 5 0 0 0 - - -;
#X connect 0 0 3 0;
#X connect 2 0 5 0;
#X connect 3 0 2 0;
#X connect 4 0 1 0;
#X connect 4 1 6 0;
