#N canvas 76 22 558 434 10;
#X obj 317 31 loadbang;
#X obj 217 71 netsend;
#X floatatom 217 111 5 0 0 0 - - -;
#X floatatom 157 71 5 0 0 0 - - -;
#X obj 27 31 netreceive 8116;
#X obj 27 181 table in 64;
#N canvas 243 22 587 609 tabdump 0;
#X obj 32 34 inlet;
#X obj 30 421 outlet;
#X obj 62 234 tabread in;
#X obj 62 154 until;
#X obj 62 194 f;
#X obj 102 194 + 1;
#X msg 62 274 add2 \$1;
#X msg 272 214 set;
#X msg 30 331;
#X obj 32 114 t b a a b;
#X obj 142 194 % 64;
#X obj 32 74 max 1;
#X connect 0 0 11 0;
#X connect 2 0 6 0;
#X connect 3 0 4 0;
#X connect 4 0 5 0;
#X connect 4 0 2 0;
#X connect 5 0 10 0;
#X connect 6 0 8 0;
#X connect 7 0 8 0;
#X connect 8 0 1 0;
#X connect 9 0 8 0;
#X connect 9 1 3 0;
#X connect 9 2 10 1;
#X connect 9 3 7 0;
#X connect 10 0 4 1;
#X connect 11 0 9 0;
#X restore 282 222 pd tabdump;
#X obj 217 31 r netsend;
#X obj 27 111 s netsend;
#X obj 282 342 s netsend;
#X obj 282 262 list prepend send;
#X obj 282 302 list trim;
#X obj 152 222 tabsend~ in;
#X obj 152 182 adc~ 1;
#X obj 27 71 route netsend dump;
#X obj 107 111 s dump;
#X obj 282 182 r dump;
#X obj 27 231 r dump;
#X obj 27 271 t b b;
#X msg 317 111 \; pd dsp 0 \, dsp 1 \; netsend connect localhost 8115
;
#X obj 317 71 del 0;
#X obj 27 351 print roundtrip;
#X obj 27 311 timer;
#X connect 0 0 20 0;
#X connect 1 0 2 0;
#X connect 4 0 14 0;
#X connect 4 1 3 0;
#X connect 6 0 10 0;
#X connect 7 0 1 0;
#X connect 10 0 11 0;
#X connect 11 0 9 0;
#X connect 13 0 12 0;
#X connect 14 0 8 0;
#X connect 14 1 15 0;
#X connect 16 0 6 0;
#X connect 17 0 18 0;
#X connect 18 0 22 0;
#X connect 18 1 22 1;
#X connect 20 0 19 0;
#X connect 22 0 21 0;
