#N canvas 261 72 330 323 10;
#X obj 36 34 pddom.from \$1 \$2;
#X obj 176 212 pddom.to \$1 \$2;
#X obj 36 122 f;
#X obj 36 152 t a a;
#X obj 96 122 + 1;
#X obj 36 74 route bang float increment modulus;
#X obj 96 152 mod 16;
#X connect 0 0 5 0;
#X connect 2 0 3 0;
#X connect 3 0 1 0;
#X connect 3 1 4 0;
#X connect 4 0 6 0;
#X connect 5 0 2 0;
#X connect 5 1 2 0;
#X connect 5 2 4 1;
#X connect 5 3 6 1;
#X connect 5 4 1 0;
#X connect 6 0 2 1;
