#N canvas 770 79 415 433 10;
#X obj 36 34 pddom.from~ \$1 \$2;
#X obj 36 394 pddom.to~ \$1 \$2;
#X obj 36 354 *~;
#X obj 76 314 line~;
#X msg 76 284 \$1 \$2;
#X obj 76 194 t a b;
#X obj 76 84 route bang float level attack decay;
#X obj 116 224 delay 12;
#X obj 76 134 f 1;
#X obj 76 164 pack f 12;
#X obj 116 254 pack 0 200;
#X connect 0 0 2 0;
#X connect 0 1 6 0;
#X connect 2 0 1 0;
#X connect 3 0 2 1;
#X connect 4 0 3 0;
#X connect 5 0 4 0;
#X connect 5 1 7 0;
#X connect 6 0 8 0;
#X connect 6 2 8 1;
#X connect 6 3 7 1;
#X connect 6 3 9 1;
#X connect 6 4 10 1;
#X connect 6 5 1 1;
#X connect 7 0 10 0;
#X connect 8 0 9 0;
#X connect 9 0 5 0;
#X connect 10 0 4 0;
