#N canvas 229 22 652 272 10;
#X obj 37 71 netsend;
#X floatatom 37 111 5 0 0 0 - - -;
#X obj 137 71 /;
#X obj 137 31 r hot;
#X obj 197 31 r cold;
#X obj 37 31 r netsend;
#X obj 277 31 netreceive 8106;
#X floatatom 387 71 5 0 0 0 - - -;
#X obj 277 71 route hot cold;
#X obj 277 111 s hot;
#X obj 337 111 s cold;
#X obj 137 111 print result;
#X obj 467 31 loadbang;
#X obj 467 111 print;
#X msg 467 71 message form test patch;
#X connect 0 0 1 0;
#X connect 2 0 11 0;
#X connect 3 0 2 0;
#X connect 4 0 2 1;
#X connect 5 0 0 0;
#X connect 6 0 8 0;
#X connect 6 1 7 0;
#X connect 8 0 9 0;
#X connect 8 1 10 0;
#X connect 12 0 14 0;
#X connect 14 0 13 0;
