#N canvas 433 42 716 399 10;
#X obj 417 31 loadbang;
#X obj 27 71 netsend;
#X floatatom 27 111 5 0 0 0 - - -;
#X floatatom 157 201 5 0 0 0 - - -;
#X obj 27 31 r netsend;
#X obj 417 71 del 0;
#X obj 27 161 netreceive 8126;
#X msg 417 111 \; pd dsp 0 \, dsp 1 \; netsend connect localhost 8125
;
#X obj 228 256 tabosc4~ wavetable;
#X obj 228 296 *~ 0.1;
#X obj 228 336 dac~;
#X msg 27 201 \; wavetable \$1 \$2;
#X obj 228 82 tgl 15 0 empty empty empty 17 7 0 10 -262144 -1 -1 1
1;
#X obj 228 226 mtof;
#X obj 228 196 + 33;
#X obj 227 31 table wavetable 131;
#X obj 228 166 * 3;
#X obj 228 136 random 6;
#X obj 228 106 metro 333;
#X connect 0 0 5 0;
#X connect 1 0 2 0;
#X connect 4 0 1 0;
#X connect 5 0 7 0;
#X connect 6 0 11 0;
#X connect 6 1 3 0;
#X connect 8 0 9 0;
#X connect 9 0 10 0;
#X connect 9 0 10 1;
#X connect 12 0 18 0;
#X connect 13 0 8 0;
#X connect 14 0 13 0;
#X connect 16 0 14 0;
#X connect 17 0 16 0;
#X connect 18 0 17 0;
