#N canvas 624 34 718 410 10;
#X obj 397 31 loadbang;
#X obj 27 71 netsend;
#X floatatom 27 111 5 0 0 0 - - -;
#X floatatom 157 201 5 0 0 0 - - -;
#X obj 27 31 r netsend;
#X obj 397 71 del 0;
#X obj 27 161 netreceive 8126;
#X msg 397 111 \; pd dsp 0 \, dsp 1 \; netsend connect localhost 8125
;
#X obj 227 61 tabosc4~ wavetable;
#X obj 227 241 *~ 0.1;
#X obj 227 271 dac~;
#X msg 27 291 \; wavetable \$1 \$2;
#X obj 27 351 table wavetable 131;
#X obj 227 211 osc~;
#X obj 227 181 mtof~;
#X obj 227 121 +~ 24;
#X obj 27 191 t a a;
#X floatatom 65 255 5 0 0 0 - - -;
#X floatatom 135 255 5 0 0 0 - - -;
#X obj 227 91 *~ 108;
#X obj 65 225 unpack f f;
#X obj 227 151 lop~ 500;
#X obj 227 31 sig~ 0.5;
#X connect 0 0 5 0;
#X connect 1 0 2 0;
#X connect 4 0 1 0;
#X connect 5 0 7 0;
#X connect 6 0 16 0;
#X connect 6 1 3 0;
#X connect 8 0 19 0;
#X connect 9 0 10 0;
#X connect 9 0 10 1;
#X connect 13 0 9 0;
#X connect 14 0 13 0;
#X connect 15 0 21 0;
#X connect 16 0 11 0;
#X connect 16 1 20 0;
#X connect 19 0 15 0;
#X connect 20 0 17 0;
#X connect 20 1 18 0;
#X connect 21 0 14 0;
#X connect 22 0 8 0;
