#N canvas 537 36 543 298 10;
#X obj 35 165 netsend;
#X obj 35 35 loadbang;
#X floatatom 35 205 5 0 0 0 - - -, f 5;
#X floatatom 435 205 5 0 0 0 - - -, f 5;
#X msg 35 75 connect localhost 8005;
#X obj 295 165 netreceive 8006 0;
#X obj 295 205 print;
#X msg 65 115 send messages to nodejs;
#X connect 0 0 2 0;
#X connect 1 0 4 0;
#X connect 4 0 0 0;
#X connect 5 0 6 0;
#X connect 5 1 3 0;
#X connect 7 0 0 0;
